<?xml version="1.0" encoding="utf-8"?>
<!-- Generator: Adobe Illustrator 22.0.1, SVG Export Plug-In . SVG Version: 6.00 Build 0)  -->
<svg version="1.1" xmlns="http://www.w3.org/2000/svg" xmlns:xlink="http://www.w3.org/1999/xlink" x="0px" y="0px"
	 viewBox="0 0 597.7 390.3" style="enable-background:new 0 0 597.7 390.3;" xml:space="preserve">
<style type="text/css">
	.st0{opacity:0.68;}
	.st1{fill:#F9FBFC;}
	.st2{fill:url(#SVGID_1_);}
	.st3{fill:url(#SVGID_2_);}
	.st4{fill:url(#SVGID_3_);}
	.st5{fill:url(#SVGID_4_);}
	.st6{fill:url(#SVGID_5_);}
	.st7{fill:url(#SVGID_6_);}
	.st8{fill:url(#SVGID_7_);}
	.st9{fill:url(#SVGID_8_);}
</style>
<g id="BACKGROUND">
</g>
<g id="OBJECTS">
	<g>
		<g>
			<g class="st0">
				
					<image style="overflow:visible;opacity:0.37;" width="682" height="475" xlink:href="3E5DF360.png"  transform="matrix(1 0 0 1 -31.783 -30.2578)">
				</image>
				<g>
					<path class="st1" d="M578,385.1H19.3c-6.9,0-12.5-5.6-12.5-12.5V20.8c0-6.9,5.6-12.5,12.5-12.5H578c6.9,0,12.5,5.6,12.5,12.5
						v351.8C590.5,379.5,584.9,385.1,578,385.1z"/>
				</g>
			</g>
			<linearGradient id="SVGID_1_" gradientUnits="userSpaceOnUse" x1="6.3866" y1="6.1139" x2="588.3575" y2="382.5948">
				<stop  offset="0" style="stop-color:#212972"/>
				<stop  offset="0.2204" style="stop-color:#1D1E6D"/>
				<stop  offset="0.6675" style="stop-color:#180C64"/>
				<stop  offset="0.9958" style="stop-color:#160661"/>
			</linearGradient>
			<path class="st2" d="M583.8,389H13.5c-7.1,0-12.8-5.7-12.8-12.8v-362c0-7.1,5.7-12.8,12.8-12.8h570.3c7.1,0,12.8,5.7,12.8,12.8
				v362C596.6,383.3,590.9,389,583.8,389z"/>
			
				<linearGradient id="SVGID_2_" gradientUnits="userSpaceOnUse" x1="336.7897" y1="544.8421" x2="205.543" y2="385.6928" gradientTransform="matrix(-1 0 0 -1 848.7278 850.0253)">
				<stop  offset="0" style="stop-color:#121A24;stop-opacity:0"/>
				<stop  offset="0.1843" style="stop-color:#4D184A;stop-opacity:0.1843"/>
				<stop  offset="0.4002" style="stop-color:#8C1673;stop-opacity:0.4002"/>
				<stop  offset="0.5977" style="stop-color:#BD1593;stop-opacity:0.5977"/>
				<stop  offset="0.7697" style="stop-color:#E114AA;stop-opacity:0.7697"/>
				<stop  offset="0.9097" style="stop-color:#F713B8;stop-opacity:0.9097"/>
				<stop  offset="1" style="stop-color:#FF13BD"/>
			</linearGradient>
			<path class="st3" d="M418.4,390h166.4c7.1,0,12.8-5.7,12.8-12.8V210.8L418.4,390z"/>
			<g>
				<g>
					<linearGradient id="SVGID_3_" gradientUnits="userSpaceOnUse" x1="4.7496" y1="5.7203" x2="597.6923" y2="387.9571">
						<stop  offset="0" style="stop-color:#FF13BD"/>
						<stop  offset="3.146198e-02" style="stop-color:#D714A3;stop-opacity:0.9369"/>
						<stop  offset="7.371743e-02" style="stop-color:#A91686;stop-opacity:0.8521"/>
						<stop  offset="0.1188" style="stop-color:#81176C;stop-opacity:0.7617"/>
						<stop  offset="0.166" style="stop-color:#5E1855;stop-opacity:0.667"/>
						<stop  offset="0.2159" style="stop-color:#431943;stop-opacity:0.5669"/>
						<stop  offset="0.2695" style="stop-color:#2D1935;stop-opacity:0.4594"/>
						<stop  offset="0.3286" style="stop-color:#1E1A2C;stop-opacity:0.3409"/>
						<stop  offset="0.3973" style="stop-color:#151A26;stop-opacity:0.2031"/>
						<stop  offset="0.4986" style="stop-color:#121A24;stop-opacity:0"/>
						<stop  offset="0.5921" style="stop-color:#151A26;stop-opacity:0.1865"/>
						<stop  offset="0.6605" style="stop-color:#1E1A2C;stop-opacity:0.3229"/>
						<stop  offset="0.7209" style="stop-color:#2E1936;stop-opacity:0.4435"/>
						<stop  offset="0.7767" style="stop-color:#451945;stop-opacity:0.5548"/>
						<stop  offset="0.8294" style="stop-color:#621858;stop-opacity:0.6598"/>
						<stop  offset="0.8797" style="stop-color:#86176F;stop-opacity:0.76"/>
						<stop  offset="0.9281" style="stop-color:#B0158A;stop-opacity:0.8566"/>
						<stop  offset="0.9738" style="stop-color:#E014A9;stop-opacity:0.9478"/>
						<stop  offset="1" style="stop-color:#FF13BD"/>
					</linearGradient>
					<path class="st4" d="M583.8,390H13.5c-7.6,0-13.8-6.2-13.8-13.8v-362c0-7.6,6.2-13.8,13.8-13.8h570.3c7.6,0,13.8,6.2,13.8,13.8
						v362C597.6,383.8,591.4,390,583.8,390z M13.5,1.4c-7,0-12.8,5.7-12.8,12.8v362c0,7,5.7,12.8,12.8,12.8h570.3
						c7,0,12.8-5.7,12.8-12.8v-362c0-7-5.7-12.8-12.8-12.8H13.5z"/>
				</g>
			</g>
			<linearGradient id="SVGID_4_" gradientUnits="userSpaceOnUse" x1="85.0617" y1="85.5342" x2="-46.185" y2="-73.6152">
				<stop  offset="0" style="stop-color:#121A24;stop-opacity:0"/>
				<stop  offset="0.1843" style="stop-color:#4D184A;stop-opacity:0.1843"/>
				<stop  offset="0.4002" style="stop-color:#8C1673;stop-opacity:0.4002"/>
				<stop  offset="0.5977" style="stop-color:#BD1593;stop-opacity:0.5977"/>
				<stop  offset="0.7697" style="stop-color:#E114AA;stop-opacity:0.7697"/>
				<stop  offset="0.9097" style="stop-color:#F713B8;stop-opacity:0.9097"/>
				<stop  offset="1" style="stop-color:#FF13BD"/>
			</linearGradient>
			<path class="st5" d="M178.6,0.7H12.2C5.1,0.7-0.6,6.5-0.6,13.5v166.4L178.6,0.7z"/>
		</g>
		<g>
			<linearGradient id="SVGID_5_" gradientUnits="userSpaceOnUse" x1="340.6535" y1="119.6128" x2="387.8131" y2="232.4864">
				<stop  offset="5.586590e-03" style="stop-color:#2163CF"/>
				<stop  offset="0.1122" style="stop-color:#1F54BD"/>
				<stop  offset="0.3807" style="stop-color:#1B3295"/>
				<stop  offset="0.6266" style="stop-color:#181A79"/>
				<stop  offset="0.8397" style="stop-color:#170B67"/>
				<stop  offset="0.9958" style="stop-color:#160661"/>
			</linearGradient>
			<circle class="st6" cx="361.2" cy="168.8" r="48.7"/>
			<linearGradient id="SVGID_6_" gradientUnits="userSpaceOnUse" x1="440.1974" y1="295.5681" x2="467.878" y2="361.8199">
				<stop  offset="5.586590e-03" style="stop-color:#2163CF"/>
				<stop  offset="0.1122" style="stop-color:#1F54BD"/>
				<stop  offset="0.3807" style="stop-color:#1B3295"/>
				<stop  offset="0.6266" style="stop-color:#181A79"/>
				<stop  offset="0.8397" style="stop-color:#170B67"/>
				<stop  offset="0.9958" style="stop-color:#160661"/>
			</linearGradient>
			<circle class="st7" cx="452.3" cy="324.4" r="28.6"/>
			<linearGradient id="SVGID_7_" gradientUnits="userSpaceOnUse" x1="520.2357" y1="131.631" x2="529.4625" y2="153.715">
				<stop  offset="5.586590e-03" style="stop-color:#2163CF"/>
				<stop  offset="0.1122" style="stop-color:#1F54BD"/>
				<stop  offset="0.3807" style="stop-color:#1B3295"/>
				<stop  offset="0.6266" style="stop-color:#181A79"/>
				<stop  offset="0.8397" style="stop-color:#170B67"/>
				<stop  offset="0.9958" style="stop-color:#160661"/>
			</linearGradient>
			<circle class="st8" cx="524.3" cy="141.3" r="9.5"/>
			<linearGradient id="SVGID_8_" gradientUnits="userSpaceOnUse" x1="489.8107" y1="325.4258" x2="495.962" y2="340.1484">
				<stop  offset="5.586590e-03" style="stop-color:#2163CF"/>
				<stop  offset="0.1122" style="stop-color:#1F54BD"/>
				<stop  offset="0.3807" style="stop-color:#1B3295"/>
				<stop  offset="0.6266" style="stop-color:#181A79"/>
				<stop  offset="0.8397" style="stop-color:#170B67"/>
				<stop  offset="0.9958" style="stop-color:#160661"/>
			</linearGradient>
			<path class="st9" d="M498.8,331.8c0,3.5-2.8,6.4-6.4,6.4c-3.5,0-6.4-2.8-6.4-6.4c0-3.5,2.8-6.4,6.4-6.4
				C496,325.5,498.8,328.3,498.8,331.8z"/>
		</g>
	</g>
</g>
</svg>
